PathFileType	4	(X/Y/Z)	/Users/niels/Desktop/University/Third Semester/Perception and Action/Exam/Gymnastics Motion Tracking/Code for Gym Tracking/Analyzed Data/Webcam_Backflip/id7_3_baseline_Sports2D/id7_3_baseline_Sports2D_px_person00.trc
DataRate	CameraRate	NumFrames	NumMarkers	Units	OrigDataRate	OrigDataStartFrame	OrigNumFrames
29.810126582278482	29.810126582278482	8	22	m	29.810126582278482	0	158
Frame#	Time	Hip			RHip			RKnee			RAnkle			RBigToe			RSmallToe			RHeel			LHip			LKnee			LAnkle			LBigToe			LSmallToe			LHeel			Neck			Head			Nose			RShoulder			RElbow			RWrist			LShoulder			LElbow			LWrist		
		X1	Y1	Z1	X2	Y2	Z2	X3	Y3	Z3	X4	Y4	Z4	X5	Y5	Z5	X6	Y6	Z6	X7	Y7	Z7	X8	Y8	Z8	X9	Y9	Z9	X10	Y10	Z10	X11	Y11	Z11	X12	Y12	Z12	X13	Y13	Z13	X14	Y14	Z14	X15	Y15	Z15	X16	Y16	Z16	X17	Y17	Z17	X18	Y18	Z18	X19	Y19	Z19	X20	Y20	Z20	X21	Y21	Z21	X22	Y22	Z22
0	0.0	0.9539827406240822	-0.5571877141914647	0.0	0.9568860584216408	-0.5571883042244061	0.0	0.9945327219951734	-0.6628561166263738	0.0	0.9496715927471476	-0.7641831576019453	0.0	0.9844136989910026	-0.7873591191316411	0.0	0.9786277737019982	-0.7888093576160499	0.0	0.9366546170014574	-0.7772167709650003	0.0	0.9510830126464842	-0.5557375637587119	0.0	0.9814873103462606	-0.6614077786339475	0.0	0.9496628435783745	-0.7569385461481565	0.0	0.9843983179054645	-0.7815536215815749	0.0	0.9786027470836132	-0.7772073250818009	0.0	0.936646832433347	-0.7685245496179535	0.0	0.9713572003342374	-0.4168010502482537	0.0	0.9872975259474486	-0.3458675789692688	0.0	1.001764525270343	-0.38205421900172637	0.0	0.9829517228054345	-0.4312729714238346	0.0	1.0379559213941107	-0.47324267251342444	0.0	1.103096427710287	-0.4964171222227349	0.0	0.9554283377414184	-0.4269201853675316	0.0	0.9351907209772332	-0.47181868217537226	0.0	0.9585280820380202	-0.48776485178547946	0.0
1	0.03354564755838641	0.9554280835272961	-0.5724710884435797	0.0	0.9578343243310764	-0.5719598404740159	0.0	0.9927456210806815	-0.6774855622873829	0.0	0.9490245054392759	-0.778353370691748	0.0	0.9838643113414854	-0.8003639344370344	0.0	0.97775300781279	-0.8020023471627694	0.0	0.9365781073363542	-0.7917364475468824	0.0	0.9531667562396108	-0.5703332313374122	0.0	0.9823988604730556	-0.6753704272591785	0.0	0.9496601225989816	-0.7712761677029106	0.0	0.9864410108972194	-0.7942053658722072	0.0	0.9801596758756728	-0.7900089032833806	0.0	0.9360438030667662	-0.7836144411039097	0.0	0.9724165643366787	-0.4302082578552256	0.0	0.9890103217075003	-0.360475957691545	0.0	1.0038956424406507	-0.39561105527890145	0.0	0.9811761321987029	-0.4469956014800201	0.0	1.022278799486215	-0.4980086745660923	0.0	1.0745895661026164	-0.5351036661454679	0.0	0.9572923895420786	-0.4416312429946936	0.0	0.9360166393364985	-0.4908110641037442	0.0	0.9630255341398214	-0.5175195283345925	0.0
2	0.06709129511677282	0.9570043248385284	-0.5870997782045209	0.0	0.9589532212127356	-0.5863538981715413	0.0	0.9906763787689443	-0.6917102472959639	0.0	0.9483153396039937	-0.7921494854007488	0.0	0.9829810333158557	-0.8129767385375056	0.0	0.9765885912092402	-0.8148776037893567	0.0	0.936489958511693	-0.8057880433102359	0.0	0.9551328684770095	-0.5845433851394091	0.0	0.9826943533464472	-0.6889868683872206	0.0	0.9495594575808236	-0.7852390522518191	0.0	0.9878345592222871	-0.806387475663488	0.0	0.9812139087427666	-0.802306881647825	0.0	0.9354632971073161	-0.7981002501343941	0.0	0.9737508939372236	-0.4432178881016687	0.0	0.9908473663807352	-0.3747483080381411	0.0	1.0059910747682475	-0.4087185393920021	0.0	0.9797894138621714	-0.46200909625751974	0.0	1.005903045181388	-0.5201126512181774	0.0	1.0438122047687752	-0.5688161626445025	0.0	0.9593741432282442	-0.4558341983166749	0.0	0.9365750266633778	-0.5083788555691668	0.0	0.9638026634163877	-0.544119069678205	0.0
3	0.10063694267515924	0.9587305080031355	-0.6002235638975582	0.0	0.9602975727760219	-0.5995811301955773	0.0	0.9881408876313177	-0.7047460592517848	0.0	0.9475461549313204	-0.8048719501118929	0.0	0.9817097800887535	-0.8244431046014007	0.0	0.9751123897530275	-0.8267088990628568	0.0	0.936374456274114	-0.818530667023675	0.0	0.9569429034852284	-0.5975933172927667	0.0	0.9820146887737028	-0.7015513899161931	0.0	0.9492886418818303	-0.798082230306903	0.0	0.9880597066999103	-0.8173799331281681	0.0	0.9813151951966568	-0.8133939877342901	0.0	0.9349004100716829	-0.8111214317839355	0.0	0.9754730241541236	-0.4551427766808288	0.0	0.9928372610878149	-0.38786729950724763	0.0	1.0080621077640965	-0.42064149262916195	0.0	0.9789679694677494	-0.475276792262728	0.0	0.988682102530849	-0.5370774471960859	0.0	1.009918689244961	-0.5932842176379232	0.0	0.9617289023798269	-0.46870925289018306	0.0	0.9367179132247189	-0.5229830221311882	0.0	0.957889978018923	-0.5648231905686798	0.0
4	0.13418259023354565	0.9605014221951642	-0.6108153696293622	0.0	0.9617765312338155	-0.6104628942294604	0.0	0.9851253161727119	-0.7154897779249455	0.0	0.9468390319359281	-0.8155237242626423	0.0	0.9804221010723808	-0.8337778468335623	0.0	0.9736778415537682	-0.8364601020683415	0.0	0.9362611491151852	-0.8289222147837326	0.0	0.9586206657965365	-0.6083260818316618	0.0	0.9803081567690832	-0.712024789091724	0.0	0.9488567257680884	-0.8087359457520364	0.0	0.9869944027345001	-0.8262607865041959	0.0	0.9803253429625916	-0.8224267417383604	0.0	0.9343557314298875	-0.8216906952821428	0.0	0.9774558961417688	-0.46504599939299446	0.0	0.9949595916012537	-0.3985966677247021	0.0	1.0101354703549719	-0.430441930662235	0.0	0.9786041905100998	-0.48560909782548606	0.0	0.9712049237106745	-0.5471228021764483	0.0	0.9740935642647163	-0.6057630349368937	0.0	0.9642161471543197	-0.4791824055827489	0.0	0.9362380931922523	-0.5330289880072089	0.0	0.9441372215939415	-0.5775879411604572	0.0
5	0.16772823779193205	0.9621776168129421	-0.6177162067917318	0.0	0.9632432434824504	-0.6176435717903087	0.0	0.981774769669593	-0.7227376335417195	0.0	0.9464267908836996	-0.8229555140802598	0.0	0.9797401274154216	-0.8400241537587068	0.0	0.9728143110279043	-0.8430418156679089	0.0	0.9362890104093304	-0.8359905036615024	0.0	0.9602107129010858	-0.6154015023895809	0.0	0.977773141740973	-0.7192276714563518	0.0	0.9483718318421333	-0.8160281206787087	0.0	0.9850183553138421	-0.8320405971803471	0.0	0.9785609645712979	-0.8284994970060401	0.0	0.933875404513206	-0.8288349744984045	0.0	0.979433114839903	-0.4718061956955618	0.0	0.9972127043245921	-0.4055795561303997	0.0	1.0121749038057983	-0.4371077836511637	0.0	0.9783798212909967	-0.49187491919540655	0.0	0.9545314978376177	-0.5493435232764117	0.0	0.9389965638658322	-0.6052681350996004	0.0	0.9666761489167529	-0.4860694651062856	0.0	0.9348748271107937	-0.5369135410739924	0.0	0.9242471544756895	-0.5808626346292327	0.0
6	0.20127388535031848	0.9636906145943721	-0.6199273671729884	0.0	0.9646181381464485	-0.6200194807607728	0.0	0.9783306935578823	-0.725485083084818	0.0	0.9465200713185734	-0.8261535582817904	0.0	0.9801106014058584	-0.8424792786955925	0.0	0.9728363818546573	-0.8455915958590571	0.0	0.9366431135540281	-0.8390116354366319	0.0	0.9617807553332307	-0.6177245803472043	0.0	0.9748040161511561	-0.7221480600879931	0.0	0.9480030257116092	-0.8190219954473686	0.0	0.9827994595747449	-0.8339119200315914	0.0	0.9766345796266191	-0.830807870553594	0.0	0.9335739835006858	-0.8317297306643565	0.0	0.9811739561433356	-0.4743281311544673	0.0	0.9995751586007452	-0.40774696395904	0.0	1.0140603870294886	-0.43972198503747173	0.0	0.9779536398055315	-0.49319572602462	0.0	0.9397649019508704	-0.5436899395008418	0.0	0.9075995349595806	-0.5925749030616114	0.0	0.969086957586771	-0.48834133716532174	0.0	0.9326834688070397	-0.5335090590707485	0.0	0.902412164731283	-0.5738194493801332	0.0
7	0.2348195329087049	0.9650521388006302	-0.6169337528118615	0.0	0.9658886960028628	-0.6170834250418735	0.0	0.9750849247987745	-0.7231763540912566	0.0	0.947159483859527	-0.8245313152416218	0.0	0.9814325379260161	-0.8408556121146777	0.0	0.9736032623330689	-0.8437349293547126	0.0	0.9373851680221991	-0.8375844387727114	0.0	0.9633487632296788	-0.6147826535886491	0.0	0.9718755217956841	-0.7201772745395397	0.0	0.9478764974077049	-0.817221311286072	0.0	0.9809199163986464	-0.831504071429129	0.0	0.975092941201968	-0.828903628794562	0.0	0.9335947725817463	-0.8298454729117107	0.0	0.982569017649501	-0.47184473732919785	0.0	1.0018810137400669	-0.40461440667653437	0.0	1.0156285806266576	-0.437656873126685	0.0	0.9772287184883398	-0.48910651253045	0.0	0.9277837413740422	-0.5309898764674986	0.0	0.8821756055754364	-0.5701496822590988	0.0	0.9715146978462196	-0.4854134897863114	0.0	0.9302912855737834	-0.5229816512886897	0.0	0.8836663039886794	-0.557293198929943	0.0
